<svg viewBox="0 0 24 24" fill="currentColor" height="24" role="img" width="24" xmlns="http://www.w3.org/2000/svg"><path d="M0.625 19.9489C0.625 18.2638 1.99102 16.8977 3.67614 16.8977H19.9489C21.634 16.8977 23 18.2638 23 19.9489C23 21.634 21.634 23 19.9489 23H3.67614C1.99102 23 0.625 21.634 0.625 19.9489Z" fill="#66CCFF"></path><path d="M1.51866 1.51866C2.7102 0.327114 4.64208 0.327114 5.83361 1.51866L13.97 9.65503C15.1615 10.8466 15.1615 12.7784 13.97 13.97L5.83361 22.1063C4.64208 23.2979 2.7102 23.2979 1.51866 22.1063C0.327114 20.9148 0.327114 18.9829 1.51866 17.7914L7.13797 12.1721C7.33655 11.9735 7.33655 11.6515 7.13797 11.4529L1.51866 5.83361C0.327114 4.64208 0.327114 2.7102 1.51866 1.51866Z" clip-rule="evenodd" fill="#0066FF" fill-rule="evenodd"></path><path d="M11.0422 16.8977L5.83361 22.1063C4.64208 23.2979 2.7102 23.2979 1.51866 22.1063C0.327114 20.9148 0.327114 18.9829 1.51866 17.7914L2.41233 16.8977H11.0422Z" fill="#CC66FF"></path><path d="M19.9488 23C21.6339 23 23 21.634 23 19.9489C23 18.2638 21.6339 16.8977 19.9488 16.8977C18.2637 16.8977 16.8977 18.2638 16.8977 19.9489C16.8977 21.634 18.2637 23 19.9488 23Z" fill="#0066FF"></path></svg>